<?xml version="1.0" encoding="UTF-8"?>
<svg width="752pt" height="752pt" version="1.1" viewBox="0 0 752 752" xmlns="http://www.w3.org/2000/svg">
 <g fill="#ff001b">
  <path d="m542.04 229.88c-21.625-21.578-50.93-33.695-81.477-33.695-30.551 0-59.852 12.117-81.48 33.695l-3.0859 3.0859-3.0859-3.0859c-21.605-21.625-50.918-33.777-81.484-33.785-30.57-0.007812-59.887 12.133-81.504 33.746-21.613 21.617-33.754 50.934-33.75 81.504 0.007813 30.566 12.16 59.879 33.785 81.488l160.81 160.81c1.3867 1.3867 3.2695 2.168 5.2305 2.168 1.9648 0 3.8477-0.78125 5.2344-2.168l160.81-160.81c21.609-21.609 33.75-50.918 33.75-81.477 0-30.562-12.141-59.871-33.75-81.477zm-10.465 152.49-155.58 155.58-155.58-155.58c-25.359-25.375-35.262-62.348-25.973-97 9.2852-34.652 36.352-61.715 71.004-71.004 34.652-9.2852 71.629 0.61719 97 25.977l8.3164 8.3164v0.003906c1.3867 1.3867 3.2695 2.168 5.2305 2.168 1.9648 0 3.8477-0.78125 5.2344-2.168l8.3164-8.3164v-0.003906c18.832-18.84 44.379-29.426 71.016-29.43 26.641-0.003906 52.188 10.578 71.027 29.414 18.836 18.836 29.418 44.387 29.414 71.023-0.003906 26.641-10.59 52.188-29.43 71.02z"/>
  <path d="m414.17 276.04c-16.297 0-29.551 16.672-29.551 37.164 0 17.262 9.4492 31.68 22.152 35.84v82.387l-0.003907 0.003906c0 4.0859 3.3125 7.3984 7.4023 7.3984 4.0859 0 7.3984-3.3125 7.3984-7.3984v-82.391c12.703-4.1602 22.152-18.578 22.152-35.84 0-20.492-13.258-37.164-29.551-37.164zm0 59.531c-7.9961 0-14.754-10.238-14.754-22.367 0-12.125 6.7578-22.367 14.754-22.367s14.754 10.238 14.754 22.367c-0.003906 12.125-6.7578 22.367-14.754 22.367z"/>
  <path d="m359.98 276.04c-1.9609 0-3.8438 0.77734-5.2344 2.168-1.3867 1.3867-2.1641 3.2695-2.1641 5.2305v37.375c0 5.2695-2.8125 10.141-7.3789 12.777-4.5625 2.6328-10.188 2.6328-14.75 0-4.5664-2.6367-7.3789-7.5078-7.3789-12.777v-37.375c0-4.0859-3.3125-7.3984-7.3984-7.3984-4.0859 0-7.3984 3.3125-7.3984 7.3984v37.375c0.019531 6.5312 2.2031 12.875 6.2109 18.031 4.0117 5.1562 9.6172 8.8398 15.941 10.473v82.117c0 4.0859 3.3125 7.3984 7.3984 7.3984 4.0859 0 7.3984-3.3125 7.3984-7.3984v-82.117c6.3281-1.6328 11.934-5.3164 15.941-10.473s6.1914-11.5 6.2109-18.031v-37.375c0-1.9609-0.77734-3.8438-2.1641-5.2305-1.3906-1.3906-3.2734-2.168-5.2344-2.168z"/>
  <path d="m337.83 319.5c1.9648 0 3.8438-0.78125 5.2344-2.168 1.3867-1.3867 2.168-3.2695 2.1641-5.2344v-28.652c0-4.0859-3.3125-7.3984-7.3984-7.3984-4.0859 0-7.3984 3.3125-7.3984 7.3984v28.652c0 1.9648 0.77734 3.8477 2.1641 5.2344 1.3906 1.3867 3.2734 2.168 5.2344 2.168z"/>
 </g>
</svg>
